<svg width="34" height="34" viewBox="0 0 34 34" fill="none" xmlns="http://www.w3.org/2000/svg">
<path d="M19.8334 2.83333H8.50002C7.74857 2.83333 7.0279 3.13184 6.49655 3.66319C5.9652 4.19455 5.66669 4.91521 5.66669 5.66666V28.3333C5.66669 29.0848 5.9652 29.8054 6.49655 30.3368C7.0279 30.8682 7.74857 31.1667 8.50002 31.1667H25.5C26.2515 31.1667 26.9721 30.8682 27.5035 30.3368C28.0348 29.8054 28.3334 29.0848 28.3334 28.3333V11.3333L19.8334 2.83333Z" stroke="#4F4F4F" stroke-width="2" stroke-linecap="round" stroke-linejoin="round"/>
<path d="M19.8333 2.83333V11.3333H28.3333" stroke="#4F4F4F" stroke-width="2" stroke-linecap="round" stroke-linejoin="round"/>
<path d="M22.6666 18.4167H11.3333" stroke="#4F4F4F" stroke-width="2" stroke-linecap="round" stroke-linejoin="round"/>
<path d="M22.6666 24.0833H11.3333" stroke="#4F4F4F" stroke-width="2" stroke-linecap="round" stroke-linejoin="round"/>
<path d="M14.1666 12.75H12.75H11.3333" stroke="#4F4F4F" stroke-width="2" stroke-linecap="round" stroke-linejoin="round"/>
</svg>
