<svg width="36" height="36" viewBox="0 0 36 36" fill="none" xmlns="http://www.w3.org/2000/svg">
<path d="M7.87502 25.875C6.4658 25.8747 5.08247 25.4963 3.86934 24.7792C2.65621 24.0621 1.65774 23.0326 0.978077 21.7981C0.298415 20.5636 -0.0375312 19.1693 0.00528421 17.7607C0.0480996 16.3522 0.468108 14.9809 1.22149 13.79C1.97488 12.599 3.03404 11.6321 4.28848 10.99C5.54292 10.3479 6.94668 10.0541 8.35333 10.1394C9.75997 10.2247 11.118 10.6859 12.2856 11.4749C13.4533 12.2639 14.3878 13.3518 14.9918 14.625H31.5L34.875 18L31.5 21.375L29.25 19.125L27 21.375L24.75 19.125L22.5 21.375L20.25 19.125L18 21.375H14.9918C14.353 22.7217 13.3451 23.8594 12.0853 24.656C10.8255 25.4526 9.36554 25.8753 7.87502 25.875ZM5.62502 20.25C6.22176 20.25 6.79406 20.0129 7.21601 19.591C7.63797 19.169 7.87502 18.5967 7.87502 18C7.87502 17.4033 7.63797 16.831 7.21601 16.409C6.79406 15.9871 6.22176 15.75 5.62502 15.75C5.02829 15.75 4.45599 15.9871 4.03403 16.409C3.61208 16.831 3.37502 17.4033 3.37502 18C3.37502 18.5967 3.61208 19.169 4.03403 19.591C4.45599 20.0129 5.02829 20.25 5.62502 20.25Z" fill="#4F4F4F"/>
</svg>
