<svg width="33" height="33" viewBox="0 0 33 33" fill="none" xmlns="http://www.w3.org/2000/svg">
<path d="M25.3363 10.0708C25.3363 15.044 21.331 19.074 16.3894 19.074C11.4506 19.074 7.44672 15.044 7.44672 10.0708C7.44672 5.09977 11.4506 1.06833 16.3894 1.06833C21.331 1.06797 25.3363 5.09977 25.3363 10.0708Z" fill="#4F4F4F"/>
<path d="M16.3893 19.9849C10.9563 19.9849 6.53577 15.5372 6.53577 10.0704C6.53577 4.6044 10.956 0.157013 16.3893 0.157013C21.8249 0.157013 26.2473 4.6044 26.2473 10.0704C26.2473 15.5376 21.8253 19.9849 16.3893 19.9849ZM16.3893 1.97963C11.9605 1.97963 8.35838 5.6089 8.35838 10.0708C8.35838 14.5327 11.9608 18.1627 16.3893 18.1627C20.8204 18.1627 24.4247 14.5323 24.4247 10.0708C24.4247 5.60927 20.8204 1.97963 16.3893 1.97963Z" fill="#4F4F4F"/>
<path d="M27.4828 29.8091C26.9794 29.8091 26.5715 29.4012 26.5715 28.8978V21.8054C26.5715 19.5291 25.3186 17.9204 22.7417 16.8884C22.2742 16.7012 22.0476 16.1711 22.2347 15.7036C22.4214 15.2369 22.9516 15.0088 23.4191 15.1967C27.5306 16.8434 28.3941 19.6992 28.3941 21.8054V28.8982C28.3941 29.4012 27.9861 29.8091 27.4828 29.8091Z" fill="#4F4F4F"/>
<path d="M5.44207 29.8081C4.93873 29.8081 4.53076 29.4001 4.53076 28.8968V21.8054C4.53076 18.7893 6.19889 16.5054 9.35348 15.201C9.81874 15.0088 10.3515 15.23 10.5437 15.6946C10.7359 16.1595 10.515 16.6926 10.0497 16.8848C7.56241 17.9132 6.35338 19.5229 6.35338 21.8054V28.8971C6.35338 29.4001 5.94541 29.8081 5.44207 29.8081Z" fill="#4F4F4F"/>
<path d="M19.6038 29.5441L16.4637 32.0579L13.3204 29.5441L15.3138 19.8315H16.4568H17.581L19.6038 29.5441Z" fill="#4F4F4F"/>
<path d="M16.4637 32.9692C16.2621 32.9692 16.0608 32.9024 15.8944 32.7693L12.751 30.2552C12.4841 30.0412 12.359 29.696 12.4275 29.3606L14.421 19.648C14.508 19.2241 14.8812 18.9199 15.3134 18.9199H17.581C18.0125 18.9199 18.3853 19.2227 18.4731 19.6455L20.4955 29.358C20.5651 29.6938 20.4407 30.0405 20.1728 30.2548L17.033 32.769C16.867 32.9024 16.665 32.9692 16.4637 32.9692ZM14.3249 29.1807L16.463 30.8912L18.5978 29.1825L16.8401 20.7428H16.0568L14.3249 29.1807Z" fill="#4F4F4F"/>
</svg>
