<svg width="24" height="24" viewBox="0 0 24 24" fill="none" xmlns="http://www.w3.org/2000/svg">
<g clip-path="url(#clip0_124_60)">
<path d="M17.6129 15.5162C19.0653 13.5343 19.7159 11.077 19.4343 8.63595C19.1528 6.19494 17.96 3.95024 16.0945 2.35092C14.2291 0.751609 11.8285 -0.0843676 9.37314 0.0102421C6.91777 0.104852 4.58866 1.12307 2.85178 2.86119C1.11491 4.59931 0.0983577 6.92914 0.00550496 9.38458C-0.0873478 11.84 0.750346 14.24 2.35099 16.1043C3.95164 17.9686 6.1972 19.1598 8.63841 19.4396C11.0796 19.7194 13.5365 19.0671 15.5174 17.6132H15.5159C15.5609 17.6732 15.6089 17.7302 15.6629 17.7857L21.4379 23.5607C21.7191 23.8422 22.1007 24.0004 22.4986 24.0005C22.8965 24.0007 23.2782 23.8427 23.5596 23.5615C23.8411 23.2802 23.9993 22.8987 23.9994 22.5008C23.9996 22.1029 23.8416 21.7212 23.5604 21.4397L17.7854 15.6647C17.7318 15.6104 17.6741 15.5603 17.6129 15.5147V15.5162ZM17.9999 9.75023C17.9999 10.8336 17.7865 11.9064 17.3719 12.9074C16.9573 13.9083 16.3496 14.8178 15.5835 15.5839C14.8174 16.3499 13.908 16.9576 12.907 17.3722C11.9061 17.7868 10.8333 18.0002 9.74988 18.0002C8.66648 18.0002 7.59368 17.7868 6.59274 17.3722C5.59181 16.9576 4.68233 16.3499 3.91625 15.5839C3.15017 14.8178 2.54248 13.9083 2.12788 12.9074C1.71327 11.9064 1.49988 10.8336 1.49988 9.75023C1.49988 7.56219 2.36908 5.46377 3.91625 3.9166C5.46343 2.36942 7.56185 1.50023 9.74988 1.50023C11.9379 1.50023 14.0363 2.36942 15.5835 3.9166C17.1307 5.46377 17.9999 7.56219 17.9999 9.75023Z" fill="#4F4F4F"/>
</g>
<defs>
<clipPath id="clip0_124_60">
<rect width="24" height="24" fill="white"/>
</clipPath>
</defs>
</svg>
